<svg xmlns="http://www.w3.org/2000/svg"  viewBox="0 0 100 100">
    <path d="M21.781,93 C15.285,93,10,87.735,10,81.265 V22.613 c0-3.137,1.228-6.086,3.456-8.303 c2.224-2.214,5.18-3.432,8.325-3.432 l60.452,0.076 C88.721,10.961,94,16.226,94,22.689 v58.575 C94,87.735,88.715,93,82.219,93 H21.781 z" opacity=".35" />
    
    <path fill="#f2f2f2" d="M19.781,91C13.285,91,8,85.743,8,79.282V20.718c0-3.133,1.228-6.077,3.456-8.291 C13.68,10.217,16.636,9,19.78,9l60.452,0.075C86.721,9.083,92,14.34,92,20.794v58.488C92,85.743,86.715,91,80.219,91H19.781z" />
    
    <path fill="#707cc0" d="M15,67.811v10.587c0,2.99,2.424,5.413,5.413,5.413h59.174c2.99,0,5.413-2.424,5.413-5.413 V67.811H15z" />
    
    <path fill="#9aa2e6" d="M16,16.811v58.081C16,76.056,16.941,77,18.101,77h63.797C83.059,77,84,76.056,84,74.892V16.811 H16z" />
    
    <path fill="#40396e" d="M80.232,86H19.768C16.036,86,13,82.979,13,79.266V20.734c0-1.794,0.701-3.481,1.973-4.752 c1.281-1.28,3.016-1.991,4.803-1.982h0l60.464,0.075C83.967,14.08,87,17.102,87,20.811v58.455C87,82.979,83.964,86,80.232,86z M19.769,17c-1.012,0-1.962,0.393-2.675,1.104C16.388,18.809,16,19.743,16,20.734v58.531C16,81.325,17.69,83,19.768,83h60.464 C82.31,83,84,81.325,84,79.266V20.811c0-2.057-1.688-3.732-3.764-3.735L19.772,17C19.771,17,19.77,17,19.769,17z" />

    <path fill="#40396e" d="M40,46 l20,0 a2.5,2.5 0, 0, 1, 0,5 l-20,0 a2.5,2.5 0, 0, 1, 0,-5 z" />
</svg>