<svg xmlns="http://www.w3.org/2000/svg"  viewBox="0 0 100 100" width="512px" height="512px" baseProfile="basic"><path d="M13.642,79C7.212,79,1.98,73.735,1.98,67.265V36.613c0-3.137,1.215-6.086,3.421-8.303 c2.202-2.214,5.128-3.432,8.241-3.432l74.71,0.076C94.774,24.961,100,30.226,100,36.689v30.575C100,73.735,94.768,79,88.338,79 H13.642z" opacity=".35"/><path fill="#f2f2f2" d="M11.662,77C5.232,77,0,71.743,0,65.282V34.718c0-3.133,1.215-6.077,3.421-8.291 C5.622,24.217,8.549,23,11.661,23l74.71,0.075c6.423,0.008,11.649,5.265,11.649,11.719v30.488 C98.02,71.743,92.788,77,86.358,77H11.662z"/><path fill="#707cc0" d="M6.929,53.811v10.587c0,2.99,2.399,5.413,5.359,5.413h73.445c2.959,0,5.359-2.424,5.359-5.413 V53.811H6.929z"/><path fill="#9aa2e6" d="M7.919,30.811v30.081C7.919,62.056,8.85,63,9.999,63h78.022c1.149,0,2.08-0.944,2.08-2.108 V30.811H7.919z"/><path fill="#40396e" d="M86.371,72H11.65c-3.695,0-6.7-3.021-6.7-6.734V34.734c0-1.794,0.693-3.481,1.953-4.752 C8.17,28.704,9.855,28,11.65,28c0.003,0,0.005,0,0.008,0l0,0l74.721,0.075c3.69,0.005,6.692,3.026,6.692,6.735v30.455 C93.071,68.979,90.065,72,86.371,72z M11.65,31c-1.001,0-1.942,0.393-2.649,1.104c-0.698,0.704-1.082,1.639-1.082,2.63v30.531 c0,2.06,1.673,3.734,3.73,3.734h74.721c2.057,0,3.73-1.675,3.73-3.734V34.811c0-2.057-1.671-3.732-3.727-3.735L11.654,31 C11.653,31,11.652,31,11.65,31z"/></svg>